<svg width="58" height="80" fill="#fec500" xmlns="http://www.w3.org/2000/svg"><path d="M53.823 0H15.119l-.044.002-.044.002c-.055.004-.11.01-.163.02l-.003.001a1.301 1.301 0 0 0-.346.123l-.01.004c-.05.027-.098.058-.144.091l-.031.023c-.046.035-.09.072-.131.113L.378 14.202a1.31 1.31 0 0 0-.113.132l-.023.03a1.294 1.294 0 0 0-.09.145l-.006.01a1.306 1.306 0 0 0-.065.148l-.011.03c-.019.055-.035.11-.046.167l-.001.007a1.343 1.343 0 0 0-.022.204L0 15.12v60.82A4.065 4.065 0 0 0 4.06 80h49.763a4.065 4.065 0 0 0 4.06-4.06V4.06A4.065 4.065 0 0 0 53.823 0zm-40 4.424v7.93a1.47 1.47 0 0 1-1.469 1.469h-7.93l9.399-9.399zM55.292 75.94a1.47 1.47 0 0 1-1.47 1.468H4.06a1.47 1.47 0 0 1-1.468-1.469V16.415h9.762a4.065 4.065 0 0 0 4.06-4.06V2.591h37.409c.81 0 1.469.659 1.469 1.468v71.88z"/><path d="M12.354 21.944H45.53a1.296 1.296 0 1 0 0-2.592H12.354a1.296 1.296 0 1 0 0 2.592zm0 6.911H45.53a1.296 1.296 0 1 0 0-2.591H12.354a1.296 1.296 0 0 0 0 2.591zm0 6.912H45.53a1.296 1.296 0 1 0 0-2.592H12.354a1.296 1.296 0 0 0 0 2.592zm0 6.911H45.53a1.296 1.296 0 1 0 0-2.592H12.354a1.296 1.296 0 0 0 0 2.592zm0 6.912H45.53a1.296 1.296 0 1 0 0-2.592H12.354a1.296 1.296 0 1 0 0 2.592zm16.588 7.084H12.354a1.296 1.296 0 1 0 0 2.592h16.588a1.296 1.296 0 1 0 0-2.592zm0 6.911H12.354a1.296 1.296 0 0 0 0 2.592h16.588a1.296 1.296 0 1 0 0-2.592zm11.749-4.147a1.99 1.99 0 0 0-1.987 1.987 1.99 1.99 0 0 0 1.987 1.988 1.99 1.99 0 0 0 1.987-1.987 1.99 1.99 0 0 0-1.987-1.988z" /><path d="M40.691 53.91c-4.144 0-7.516 3.371-7.516 7.516 0 4.144 3.372 7.516 7.516 7.516 4.145 0 7.516-3.372 7.516-7.516 0-4.145-3.371-7.517-7.516-7.517zm0 12.44a4.93 4.93 0 0 1-4.924-4.924A4.93 4.93 0 0 1 40.69 56.5a4.93 4.93 0 0 1 4.925 4.925 4.93 4.93 0 0 1-4.925 4.924z" /></svg>