<svg version="1.1" id="Layer_1" xmlns="http://www.w3.org/2000/svg" xmlns:xlink="http://www.w3.org/1999/xlink" x="0px" y="0px"
	 viewBox="0 0 502 502" style="enable-background:new 0 0 502 502;" xml:space="preserve">
<g>
	<g>
		<g>
			<path d="M432.568,0H69.432c-5.523,0-10,4.478-10,10v482c0,5.522,4.477,10,10,10h363.136c5.523,0,10-4.478,10-10V10
				C442.568,4.478,438.09,0,432.568,0z M422.568,482H79.432V20h343.136V482z"/>
			<path d="M388.948,164.014h-67.611c-5.522,0-10,4.478-10,10v67.61c0,5.522,4.478,10,10,10h67.611c5.522,0,10-4.478,10-10v-67.61
				C398.948,168.492,394.47,164.014,388.948,164.014z M378.948,231.624h-47.611v-47.61h47.611V231.624z"/>
			<path d="M284.26,164.014h-67.61c-5.523,0-10,4.478-10,10v67.61c0,5.522,4.477,10,10,10h67.61c5.522,0,10-4.478,10-10v-67.61
				C294.26,168.492,289.782,164.014,284.26,164.014z M274.259,231.624h-47.61v-47.61h47.61V231.624z"/>
			<path d="M111.961,251.624h67.611c5.523,0,10-4.478,10-10v-67.61c0-5.522-4.477-10-10-10h-67.611c-5.523,0-10,4.478-10,10v67.61
				C101.961,247.146,106.438,251.624,111.961,251.624z M121.961,184.014h47.611v47.61h-47.611V184.014z"/>
			<path d="M111.961,142h276.987c5.522,0,10-4.478,10-10V48c0-5.522-4.478-10-10-10H111.961c-5.523,0-10,4.478-10,10v84
				C101.961,137.522,106.438,142,111.961,142z M121.961,58h256.987v64H121.961V58z"/>
			<path d="M284.26,268.702h-67.61c-5.523,0-10,4.478-10,10v67.611c0,5.522,4.477,10,10,10h67.61c5.522,0,10-4.478,10-10v-67.611
				C294.26,273.18,289.782,268.702,284.26,268.702z M274.259,336.313h-47.61v-47.611h47.61V336.313z"/>
			<path d="M111.961,356.313h67.611c5.523,0,10-4.478,10-10v-67.611c0-5.522-4.477-10-10-10h-67.611c-5.523,0-10,4.478-10,10v67.611
				C101.961,351.835,106.438,356.313,111.961,356.313z M121.961,288.702h47.611v47.611h-47.611V288.702z"/>
			<path d="M284.26,373.389h-67.61c-5.523,0-10,4.478-10,10V451c0,5.522,4.477,10,10,10h67.61c5.522,0,10-4.478,10-10v-67.611
				C294.26,377.867,289.782,373.389,284.26,373.389z M274.259,441h-47.61v-47.611h47.61V441z"/>
			<path d="M111.961,461h67.611c5.523,0,10-4.478,10-10v-67.611c0-5.522-4.477-10-10-10h-67.611c-5.523,0-10,4.478-10,10V451
				C101.961,456.522,106.438,461,111.961,461z M121.961,393.389h47.611V441h-47.611V393.389z"/>
			<path d="M388.948,268.701h-67.611c-5.522,0-10,4.478-10,10V451c0,5.522,4.478,10,10,10h67.611c5.522,0,10-4.478,10-10V278.701
				C398.948,273.179,394.47,268.701,388.948,268.701z M378.948,441h-47.611V288.701h47.611V441z"/>
			<path d="M249,88H148c-5.523,0-10,4.478-10,10c0,5.522,4.477,10,10,10h101c5.522,0,10-4.478,10-10C259,92.478,254.522,88,249,88z"
				/>
			<path d="M305,88h-21c-5.522,0-10,4.478-10,10c0,5.522,4.478,10,10,10h21c5.522,0,10-4.478,10-10C315,92.478,310.522,88,305,88z"
				/>
		</g>
	</g>
</g>
</svg>
