<svg version="1.1" id="Слой_1" fill="#fec500" xmlns="http://www.w3.org/2000/svg" width="70" height="70" xml:space="preserve"><path class="st0" d="M64.7 18v-.4s0-.1-.1-.1v-.1L51.5.6s0-.1-.1-.1l-.1-.1-.1-.1s-.1 0-.1-.1H7.3C6.5 0 5.9.7 5.9 1.4v67.2c0 .8.6 1.4 1.4 1.4h56c.8 0 1.4-.6 1.4-1.4V18c0 .1 0 .1 0 0zm-4.3-1.1h-8.5V5.7l8.5 11.2zm1.4 50.3H8.7V2.9h40.2v15.4c0 .8.6 1.4 1.4 1.4h11.5v47.5zm0 0"/><path class="st0" d="M14.8 26.3c0 .8.6 1.4 1.4 1.4h38.2c.8 0 1.4-.6 1.4-1.4 0-.8-.6-1.4-1.4-1.4H16.3c-.8-.1-1.5.6-1.5 1.4zm1.5-7.3h25c.8 0 1.4-.6 1.4-1.4 0-.8-.6-1.4-1.4-1.4h-25c-.8 0-1.4.6-1.4 1.4-.1.7.6 1.4 1.4 1.4zm0 17.5h38.2c.8 0 1.4-.6 1.4-1.4s-.6-1.4-1.4-1.4H16.3c-.8 0-1.4.6-1.4 1.4s.6 1.4 1.4 1.4zm24.9 8.7c.8 0 1.4-.6 1.4-1.4s-.6-1.4-1.4-1.4H16.3c-.8 0-1.4.6-1.4 1.4s.6 1.4 1.4 1.4h24.9zm12.3 1.9L41.4 57.7 37.9 53c-.5-.6-1.4-.8-2-.3-.6.5-.8 1.4-.3 2l4.4 5.9c.2.3.6.5 1 .6h.1c.3 0 .7-.1.9-.4l13.2-11.7c.6-.5.7-1.4.1-2-.3-.5-1.2-.6-1.8 0zm0 0"/></svg>