<svg width="70" fill="#fec500" height="70" xmlns="http://www.w3.org/2000/svg"><path fill-opacity="0" d="M0 0h70v70H0z"/><path  fill-opacity="0" d="M0 0h70v70H0z"/><path  fill-opacity="0" d="M0 0h70v70H0z"/><path fill-opacity="0" d="M0 0h70v70H0z"/><path fill-opacity="0" d="M0 0h70v70H0z"/><path fill-opacity="0" d="M0 0h70v70H0z"/><path d="M66.976 15.06l-1.698-.53c-.425-.106-.85-.212-1.38-.212-1.91 0-3.609 1.273-4.245 3.076l-.956 2.864V18.03c0-.318-.212-.636-.424-.848L40.865.318A1.147 1.147 0 0 0 40.122 0H6.05c-.637 0-1.06.424-1.06 1.06v3.288H1.06C.424 4.348 0 4.773 0 5.41v63.53C0 69.576.425 70 1.061 70h51.586c.637 0 1.061-.424 1.061-1.06v-3.288h3.928c.637 0 1.061-.425 1.061-1.061V50.273l2.972-4.03.106-.319 7.961-25.348c.85-2.334-.424-4.773-2.76-5.515zM41.184 3.607L55.088 16.97H41.184V3.606zM51.586 67.88H2.123V6.469h2.866v58.122c0 .637.424 1.06 1.06 1.06h45.537v2.228zm5.095-4.349H7.11V2.122h31.95v15.91c0 .636.424 1.06 1.061 1.06H56.68v7.954l-4.988 15.697v.319l.212 13.47c0 .424.318.848.743.954.425.106.955 0 1.168-.424l2.865-3.819v10.289zm-2.76-10.288l-.213-8.802 5.308 1.696-5.095 7.106zM67.826 19.94l-7.643 24.288-6.156-2.015 7.642-24.182c.425-1.166 1.699-1.909 2.866-1.485l1.698.53c1.274.319 2.017 1.698 1.593 2.864z" /><path d="M14.33 19.09h15.284c.637 0 1.061-.424 1.061-1.06V7.21c0-.636-.424-1.06-1.061-1.06H14.329c-.637 0-1.061.424-1.061 1.06v10.82c0 .53.53 1.06 1.061 1.06zm1.06-10.818h13.163v8.697H15.39V8.272zM12.207 29.06h32.267c.637 0 1.061-.424 1.061-1.06 0-.636-.424-1.06-1.061-1.06H12.207c-.638 0-1.062.424-1.062 1.06 0 .636.425 1.06 1.062 1.06zm0 7.743h32.267c.637 0 1.061-.424 1.061-1.06 0-.637-.424-1.06-1.061-1.06H12.207c-.638 0-1.062.423-1.062 1.06 0 .636.425 1.06 1.062 1.06zm0 7.742h32.267c.637 0 1.061-.424 1.061-1.06 0-.636-.424-1.06-1.061-1.06H12.207c-.638 0-1.062.424-1.062 1.06 0 .636.425 1.06 1.062 1.06zm33.223 6.682c0-.636-.425-1.06-1.062-1.06H12.206c-.636 0-1.06.424-1.06 1.06 0 .637.424 1.06 1.06 1.06h32.268c.53 0 .955-.53.955-1.06zm3.502 6.683H32.904c-.637 0-1.061.424-1.061 1.06 0 .636.425 1.06 1.061 1.06h15.922c.637 0 1.061-.424 1.061-1.06 0-.636-.424-1.06-.955-1.06z" /></svg>