<?xml version="1.0" encoding="utf-8"?>
<!-- Generator: Adobe Illustrator 17.0.0, SVG Export Plug-In . SVG Version: 6.00 Build 0)  -->
<!DOCTYPE svg PUBLIC "-//W3C//DTD SVG 1.1//EN" "http://www.w3.org/Graphics/SVG/1.1/DTD/svg11.dtd">
<svg version="1.1" id="logo" xmlns="http://www.w3.org/2000/svg" xmlns:xlink="http://www.w3.org/1999/xlink" x="0px" y="0px"
	 width="310px" height="42px" viewBox="386.965 52.495 310 42" enable-background="new 386.965 52.495 310 42" xml:space="preserve"
	>
<path id="Рамка_1_" fill="#010101" d="M426.494,55.01v36.97h-37.011V55.01H426.494 M429.011,52.495h-2.517h-37.011h-2.517
	v2.515v36.97v2.515h2.517h37.011h2.517V91.98V55.01L429.011,52.495L429.011,52.495z"/>
<linearGradient id="Символ_2_" gradientUnits="userSpaceOnUse" x1="716.1278" y1="-165.7649" x2="695.83" y2="-130.6079" gradientTransform="matrix(1 0 0 -1 -299.11 -74.045)">
	<stop  offset="0" style="stop-color:#1D76BB"/>
	<stop  offset="1" style="stop-color:#28A8E0"/>
</linearGradient>
<path id="Символ_1_" fill="url(#Символ_2_)" d="M409.573,88.348h13.285v-3.632h-13.507h-12.598v-5.823h-3.636v9.455
	H409.573z M410.626,83.242h12.232V79.61h-12.204h-5.368c-1.891,0-3.429-1.537-3.429-3.426c0-1.889,1.538-3.426,3.429-3.426v-3.632
	h-0.124v0.001c-3.839,0.066-6.941,3.206-6.941,7.057c0,3.892,3.169,7.058,7.064,7.058C405.286,83.242,410.626,83.242,410.626,83.242
	z M415.794,69.126c1.891,0,3.429-1.537,3.429-3.426c0-1.889-1.538-3.426-3.429-3.426h-1.877h-17.163v14.557h-3.636v-18.19h20.716
	h1.96c3.895,0,7.064,3.166,7.064,7.058s-3.169,7.058-7.064,7.058l-8.453,0.001l-0.001-3.633L415.794,69.126"/>
<g>
	<path d="M435.079,73.774V60.289h6.178c1.302,0,2.323,0.385,3.062,1.156c0.739,0.771,1.109,1.822,1.109,3.151
		c0,0.193-0.015,0.401-0.046,0.621c-0.03,0.221-0.088,0.473-0.173,0.757c-0.085,0.284-0.194,0.559-0.327,0.825
		c-0.133,0.266-0.313,0.529-0.541,0.789c-0.227,0.26-0.485,0.485-0.772,0.675c-0.288,0.191-0.642,0.345-1.063,0.463
		c-0.421,0.118-0.88,0.177-1.377,0.177h-3.235v4.87L435.079,73.774L435.079,73.774z M437.892,66.583h2.614
		c1.404,0,2.106-0.698,2.106-2.095c0-0.659-0.195-1.137-0.585-1.433c-0.39-0.296-1.021-0.444-1.892-0.444h-2.242V66.583z"/>
	<path d="M447.551,73.774V60.289h6.886c0.678,0,1.281,0.097,1.808,0.29c0.527,0.193,0.937,0.431,1.231,0.712
		c0.293,0.281,0.534,0.606,0.722,0.975c0.188,0.369,0.312,0.698,0.373,0.988c0.061,0.29,0.091,0.571,0.091,0.843
		c0,0.763-0.181,1.435-0.542,2.016c-0.361,0.581-0.869,0.981-1.525,1.199c0.255,0.109,0.457,0.209,0.606,0.299
		c0.149,0.091,0.302,0.219,0.46,0.386c0.158,0.166,0.277,0.363,0.355,0.589c0.079,0.227,0.144,0.517,0.196,0.871
		c0.052,0.354,0.078,0.779,0.078,1.275c0,1.05,0.031,1.731,0.094,2.042c0.063,0.311,0.234,0.521,0.514,0.629v0.371h-3.122
		c-0.199-0.718-0.299-1.626-0.299-2.725c0-0.35-0.006-0.628-0.018-0.833c-0.012-0.205-0.042-0.418-0.091-0.638
		c-0.049-0.22-0.118-0.386-0.209-0.498c-0.09-0.112-0.219-0.217-0.386-0.317c-0.166-0.099-0.371-0.167-0.613-0.203
		c-0.242-0.036-0.536-0.054-0.881-0.054h-2.914v5.269L447.551,73.774L447.551,73.774z M450.364,66.238h3.304
		c0.745,0,1.294-0.145,1.648-0.435c0.354-0.29,0.531-0.759,0.531-1.406c0-0.205-0.027-0.402-0.081-0.589
		c-0.054-0.187-0.15-0.376-0.286-0.567c-0.136-0.19-0.342-0.343-0.617-0.458c-0.275-0.115-0.61-0.172-1.003-0.172h-3.495V66.238
		L450.364,66.238z"/>
	<path d="M460.59,69.412c-0.179-0.719-0.268-1.512-0.268-2.376c0-0.864,0.089-1.656,0.268-2.376c0.179-0.719,0.412-1.318,0.7-1.796
		c0.288-0.477,0.63-0.901,1.026-1.27c0.397-0.369,0.79-0.654,1.181-0.857c0.39-0.202,0.804-0.367,1.24-0.494s0.815-0.21,1.136-0.249
		c0.321-0.039,0.629-0.059,0.926-0.059c0.296,0,0.604,0.02,0.925,0.059c0.32,0.039,0.698,0.123,1.134,0.249
		c0.436,0.127,0.848,0.292,1.238,0.494c0.39,0.203,0.783,0.488,1.179,0.857c0.396,0.369,0.738,0.792,1.025,1.27
		c0.287,0.478,0.52,1.076,0.698,1.796c0.178,0.719,0.268,1.512,0.268,2.376c0,0.865-0.089,1.657-0.268,2.376
		c-0.178,0.719-0.411,1.318-0.698,1.796c-0.287,0.478-0.629,0.899-1.025,1.265c-0.396,0.366-0.789,0.65-1.179,0.852
		c-0.39,0.203-0.803,0.367-1.238,0.494c-0.435,0.127-0.813,0.21-1.134,0.249c-0.321,0.039-0.629,0.059-0.925,0.059
		c-0.296,0-0.605-0.02-0.926-0.059c-0.321-0.039-0.7-0.122-1.136-0.249c-0.436-0.127-0.85-0.292-1.24-0.494
		c-0.391-0.202-0.784-0.487-1.181-0.852c-0.397-0.366-0.739-0.787-1.026-1.265C461.002,70.73,460.768,70.131,460.59,69.412z
		 M463.376,65.1c-0.16,0.565-0.24,1.211-0.24,1.936c0,0.725,0.08,1.371,0.24,1.936c0.16,0.565,0.363,1.019,0.607,1.36
		c0.245,0.342,0.535,0.623,0.87,0.843s0.66,0.372,0.974,0.453c0.315,0.081,0.637,0.122,0.97,0.122c0.332,0,0.656-0.041,0.97-0.122
		c0.314-0.082,0.638-0.233,0.97-0.453s0.623-0.502,0.87-0.843c0.248-0.341,0.45-0.795,0.607-1.36
		c0.157-0.565,0.236-1.211,0.236-1.936c0-0.725-0.078-1.371-0.236-1.936c-0.157-0.565-0.36-1.019-0.607-1.36
		s-0.538-0.624-0.87-0.848c-0.332-0.224-0.656-0.376-0.97-0.458c-0.315-0.082-0.637-0.123-0.97-0.123s-0.656,0.041-0.97,0.123
		c-0.314,0.081-0.639,0.234-0.974,0.458c-0.335,0.224-0.626,0.506-0.87,0.848C463.739,64.081,463.536,64.534,463.376,65.1z"/>
	<path d="M475.39,73.774V60.289h9.612v2.322h-6.799v2.784h5.946v2.322h-5.946v6.058H475.39z"/>
	<path d="M492.001,73.774V60.289h2.814v11.164h6.726v2.322H492.001z"/>
	<path d="M503.357,73.774V60.289h2.814v13.485H503.357z"/>
	<path d="M508.758,73.774V60.289h2.977l5.355,9.377h0.036v-9.377h2.623v13.485h-2.832l-5.483-9.622h-0.054v9.622H508.758z"/>
	<path d="M522.346,73.774V60.289h9.966v2.322h-7.153v2.784h6.563v2.322h-6.563v3.736h7.453v2.322H522.346z"/>
</g>
<g>
	<path fill="#A7A9AC" d="M435.153,82.039c0-0.707,0.098-1.341,0.294-1.903s0.467-1.021,0.813-1.378
		c0.345-0.357,0.748-0.63,1.208-0.817c0.46-0.188,0.96-0.282,1.5-0.282c0.477,0,0.914,0.063,1.313,0.19
		c0.398,0.126,0.731,0.29,0.997,0.491c0.266,0.201,0.495,0.433,0.684,0.697c0.19,0.264,0.33,0.527,0.422,0.787
		c0.091,0.26,0.146,0.519,0.165,0.776h-1.726c-0.03-0.101-0.054-0.181-0.073-0.243s-0.053-0.151-0.103-0.268
		s-0.103-0.213-0.159-0.287c-0.056-0.075-0.131-0.159-0.226-0.254c-0.095-0.095-0.2-0.17-0.316-0.226s-0.256-0.103-0.422-0.142
		c-0.166-0.039-0.347-0.059-0.545-0.059c-0.182,0-0.363,0.026-0.542,0.078c-0.179,0.052-0.364,0.147-0.556,0.285
		c-0.192,0.137-0.359,0.313-0.503,0.527c-0.143,0.214-0.262,0.497-0.355,0.848c-0.093,0.351-0.14,0.753-0.14,1.203
		c0,0.383,0.042,0.742,0.126,1.077c0.084,0.335,0.208,0.638,0.371,0.91c0.164,0.271,0.383,0.486,0.656,0.645
		c0.274,0.158,0.587,0.237,0.941,0.237c0.48,0,0.882-0.14,1.204-0.421c0.322-0.281,0.535-0.674,0.639-1.18h1.726
		c-0.179,0.941-0.573,1.687-1.181,2.238c-0.609,0.551-1.416,0.826-2.422,0.826c-0.555,0-1.062-0.094-1.522-0.282
		c-0.46-0.188-0.86-0.461-1.2-0.82c-0.34-0.359-0.603-0.815-0.79-1.37C435.246,83.365,435.153,82.738,435.153,82.039z"/>
	<path fill="#A7A9AC" d="M443.748,83.49c-0.11-0.443-0.165-0.93-0.165-1.462s0.055-1.019,0.165-1.462
		c0.11-0.443,0.253-0.811,0.43-1.105s0.388-0.554,0.632-0.781s0.486-0.403,0.727-0.527c0.24-0.125,0.495-0.226,0.763-0.304
		c0.268-0.078,0.501-0.129,0.699-0.153c0.197-0.024,0.387-0.036,0.57-0.036s0.372,0.012,0.569,0.036
		c0.197,0.024,0.43,0.075,0.698,0.153c0.268,0.078,0.522,0.179,0.762,0.304s0.482,0.301,0.726,0.527
		c0.244,0.227,0.454,0.487,0.631,0.781c0.177,0.294,0.32,0.662,0.43,1.105c0.11,0.443,0.165,0.93,0.165,1.462
		s-0.055,1.019-0.165,1.462c-0.11,0.443-0.253,0.811-0.43,1.105c-0.177,0.294-0.387,0.553-0.631,0.779
		c-0.244,0.225-0.486,0.4-0.726,0.525c-0.24,0.125-0.494,0.226-0.762,0.304c-0.268,0.078-0.5,0.129-0.698,0.153
		s-0.387,0.036-0.569,0.036c-0.182,0-0.372-0.012-0.57-0.036c-0.198-0.024-0.43-0.075-0.699-0.153
		c-0.269-0.078-0.523-0.179-0.763-0.304c-0.24-0.125-0.483-0.299-0.727-0.525s-0.455-0.485-0.632-0.779
		C444.002,84.301,443.858,83.933,443.748,83.49z M445.463,80.836c-0.099,0.348-0.148,0.745-0.148,1.192s0.049,0.843,0.148,1.192
		c0.098,0.348,0.223,0.627,0.374,0.837c0.151,0.21,0.329,0.383,0.536,0.519c0.206,0.136,0.406,0.229,0.6,0.279
		c0.194,0.05,0.392,0.075,0.597,0.075c0.204,0,0.404-0.025,0.597-0.075c0.193-0.05,0.392-0.143,0.597-0.279s0.383-0.309,0.536-0.519
		s0.277-0.489,0.374-0.837c0.097-0.348,0.145-0.745,0.145-1.192s-0.048-0.843-0.145-1.192c-0.097-0.348-0.221-0.627-0.374-0.837
		c-0.152-0.21-0.331-0.384-0.536-0.522s-0.404-0.232-0.597-0.282c-0.193-0.05-0.392-0.075-0.597-0.075
		c-0.204,0-0.404,0.025-0.597,0.075c-0.193,0.05-0.393,0.144-0.6,0.282c-0.206,0.137-0.385,0.312-0.536,0.522
		S445.561,80.488,445.463,80.836z"/>
	<path fill="#A7A9AC" d="M452.936,86.174v-8.299h1.832l3.296,5.77h0.022v-5.77h1.614v8.299h-1.743l-3.374-5.921h-0.033v5.921
		C454.55,86.174,452.936,86.174,452.936,86.174z"/>
	<path fill="#A7A9AC" d="M461.104,83.613h1.581c0,0.108,0.012,0.215,0.036,0.321c0.024,0.106,0.074,0.224,0.151,0.354
		s0.176,0.243,0.299,0.338s0.294,0.175,0.514,0.24c0.22,0.065,0.473,0.098,0.76,0.098c0.223,0,0.431-0.016,0.623-0.047
		c0.192-0.031,0.376-0.085,0.553-0.161c0.177-0.076,0.316-0.187,0.416-0.334c0.101-0.147,0.151-0.324,0.151-0.532
		c0-0.082-0.009-0.156-0.025-0.223c-0.017-0.067-0.047-0.128-0.092-0.184s-0.087-0.105-0.126-0.148s-0.101-0.083-0.185-0.123
		c-0.084-0.039-0.156-0.071-0.215-0.097c-0.059-0.026-0.149-0.054-0.268-0.085c-0.119-0.03-0.214-0.055-0.284-0.073
		c-0.07-0.018-0.178-0.046-0.322-0.083l-1.667-0.427c-1.236-0.298-1.854-1.043-1.854-2.238c0-0.141,0.011-0.285,0.033-0.43
		c0.022-0.145,0.066-0.303,0.131-0.474c0.065-0.171,0.147-0.333,0.246-0.485s0.232-0.301,0.399-0.444
		c0.167-0.143,0.359-0.267,0.575-0.371c0.216-0.104,0.478-0.188,0.788-0.251c0.309-0.063,0.65-0.095,1.022-0.095
		c0.485,0,0.921,0.061,1.309,0.184c0.388,0.123,0.698,0.279,0.931,0.469s0.427,0.408,0.582,0.656s0.261,0.485,0.319,0.711
		c0.058,0.227,0.087,0.45,0.087,0.67h-1.664c-0.007-0.075-0.017-0.139-0.028-0.193c-0.011-0.054-0.033-0.127-0.064-0.22
		c-0.032-0.093-0.071-0.174-0.117-0.243c-0.047-0.069-0.113-0.144-0.198-0.226c-0.086-0.082-0.184-0.148-0.296-0.198
		s-0.252-0.093-0.422-0.128c-0.17-0.035-0.358-0.053-0.567-0.053c-0.242,0-0.467,0.03-0.676,0.089s-0.39,0.166-0.545,0.32
		c-0.155,0.154-0.232,0.349-0.232,0.582c0,0.123,0.021,0.233,0.064,0.332s0.091,0.177,0.145,0.234
		c0.054,0.057,0.127,0.109,0.218,0.153c0.091,0.045,0.168,0.075,0.229,0.089c0.061,0.015,0.137,0.034,0.227,0.056l2.021,0.498
		c0.254,0.063,0.476,0.129,0.666,0.198s0.386,0.163,0.585,0.282c0.2,0.119,0.363,0.254,0.49,0.405
		c0.127,0.151,0.231,0.34,0.314,0.569c0.082,0.229,0.123,0.487,0.123,0.773c0,0.342-0.049,0.655-0.146,0.937s-0.221,0.516-0.372,0.7
		s-0.332,0.346-0.543,0.485c-0.21,0.139-0.416,0.245-0.615,0.318s-0.41,0.132-0.632,0.179c-0.222,0.047-0.406,0.075-0.551,0.087
		c-0.146,0.011-0.283,0.017-0.414,0.017c-0.408,0-0.781-0.033-1.12-0.101c-0.339-0.067-0.626-0.156-0.861-0.268
		c-0.235-0.112-0.442-0.246-0.623-0.405c-0.18-0.158-0.324-0.318-0.432-0.48c-0.107-0.162-0.195-0.338-0.262-0.527
		c-0.067-0.19-0.113-0.363-0.137-0.522S461.104,83.773,461.104,83.613z"/>
	<path fill="#A7A9AC" d="M469.156,83.362v-5.486h1.732v5.397c0,0.551,0.138,0.965,0.413,1.242c0.275,0.277,0.629,0.416,1.061,0.416
		c0.581,0,1.004-0.134,1.271-0.402c0.266-0.268,0.399-0.661,0.399-1.178v-5.475h1.732v5.374c0,1.064-0.291,1.854-0.873,2.369
		s-1.414,0.773-2.495,0.773c-0.309,0-0.603-0.025-0.883-0.075c-0.279-0.05-0.567-0.144-0.863-0.282s-0.55-0.315-0.762-0.533
		c-0.212-0.217-0.387-0.51-0.525-0.876C469.225,84.259,469.156,83.838,469.156,83.362z"/>
	<path fill="#A7A9AC" d="M477.436,86.174v-8.299h1.732v6.87h4.139v1.429C483.307,86.174,477.436,86.174,477.436,86.174z"/>
	<path fill="#A7A9AC" d="M482.845,79.304v-1.429h6.731v1.429h-2.502v6.87h-1.732v-6.87H482.845z"/>
	<path fill="#A7A9AC" d="M490.611,86.174v-8.299h1.732v8.299C492.342,86.174,490.611,86.174,490.611,86.174z"/>
	<path fill="#A7A9AC" d="M494.014,86.174v-8.299h1.832l3.296,5.77h0.022v-5.77h1.614v8.299h-1.743l-3.374-5.921h-0.033v5.921
		C495.629,86.174,494.014,86.174,494.014,86.174z"/>
	<path fill="#A7A9AC" d="M502.172,82.05c0-0.461,0.049-0.904,0.148-1.328c0.099-0.424,0.255-0.823,0.47-1.197
		c0.214-0.374,0.477-0.698,0.788-0.974c0.311-0.275,0.691-0.493,1.14-0.653c0.449-0.16,0.944-0.24,1.484-0.24
		c0.409,0,0.791,0.042,1.144,0.125c0.353,0.084,0.659,0.199,0.915,0.346c0.257,0.147,0.486,0.313,0.686,0.499
		c0.201,0.186,0.364,0.385,0.488,0.597s0.222,0.421,0.293,0.628c0.071,0.206,0.114,0.408,0.128,0.605h-1.725
		c0-0.093-0.038-0.21-0.114-0.351s-0.184-0.287-0.324-0.438c-0.139-0.151-0.33-0.28-0.572-0.388
		c-0.242-0.108-0.506-0.162-0.792-0.162c-0.32,0-0.62,0.055-0.901,0.165c-0.281,0.11-0.537,0.277-0.77,0.502
		c-0.233,0.225-0.417,0.531-0.553,0.918c-0.136,0.387-0.204,0.835-0.204,1.345c0,0.439,0.048,0.829,0.145,1.172
		c0.097,0.342,0.222,0.619,0.377,0.829c0.154,0.21,0.34,0.383,0.558,0.519c0.218,0.136,0.438,0.23,0.661,0.282
		c0.223,0.052,0.459,0.078,0.709,0.078c0.104,0,0.214-0.009,0.329-0.028c0.115-0.019,0.263-0.065,0.444-0.139
		c0.18-0.075,0.345-0.173,0.494-0.296c0.149-0.123,0.293-0.302,0.432-0.539c0.139-0.236,0.243-0.513,0.31-0.829h-1.933v-1.395h3.469
		v4.47h-1.156l-0.173-1.038c-0.104,0.13-0.199,0.241-0.285,0.332c-0.086,0.091-0.208,0.2-0.368,0.327
		c-0.16,0.126-0.323,0.229-0.491,0.307c-0.167,0.078-0.378,0.146-0.63,0.204c-0.253,0.058-0.523,0.087-0.809,0.087
		c-0.51,0-0.991-0.091-1.442-0.273s-0.854-0.448-1.21-0.798c-0.356-0.35-0.638-0.805-0.847-1.367
		C502.276,83.391,502.172,82.757,502.172,82.05z"/>
</g>
<g>
	<path fill="#A7A9AB" d="M557.095,60.224v8.414h4.33v-8.414h1.233v8.442l0.827,0.028l-0.084,3.234h-0.967l-0.084-2.268h-6.474
		v-9.436H557.095z"/>
	<path fill="#A7A9AB" d="M565.573,66.495c0.028,1.666,1.093,2.352,2.326,2.352c0.883,0,1.415-0.154,1.878-0.35l0.21,0.882
		c-0.434,0.196-1.177,0.42-2.256,0.42c-2.088,0-3.335-1.372-3.335-3.416s1.205-3.654,3.181-3.654c2.214,0,2.802,1.946,2.802,3.192
		c0,0.252-0.028,0.448-0.042,0.574C570.338,66.495,565.573,66.495,565.573,66.495z M569.189,65.613
		c0.014-0.784-0.322-2.002-1.71-2.002c-1.247,0-1.793,1.148-1.892,2.002H569.189z"/>
	<path fill="#A7A9AB" d="M573.099,62.883v2.73h3.223v-2.73h1.219v6.776h-1.219v-3.066h-3.223v3.066h-1.219v-6.776H573.099z"/>
	<path fill="#A7A9AB" d="M584.099,62.883v0.98h-2.116v5.796h-1.219v-5.796h-2.116v-0.98H584.099z"/>
	<path fill="#A7A9AB" d="M585.179,65.095c0-0.868-0.028-1.568-0.056-2.212h1.107l0.056,1.162h0.028
		c0.505-0.826,1.303-1.316,2.41-1.316c1.639,0,2.873,1.386,2.873,3.444c0,2.436-1.485,3.64-3.083,3.64
		c-0.897,0-1.681-0.392-2.088-1.064h-0.028v3.682h-1.219V65.095z M586.398,66.901c0,0.182,0.028,0.35,0.056,0.504
		c0.224,0.854,0.967,1.442,1.85,1.442c1.303,0,2.06-1.064,2.06-2.618c0-1.358-0.715-2.52-2.018-2.52
		c-0.841,0-1.626,0.602-1.864,1.526c-0.042,0.154-0.084,0.336-0.084,0.504L586.398,66.901L586.398,66.901z"/>
	<path fill="#A7A9AB" d="M601.21,62.883v6.776h-1.219v-5.81h-2.326v1.764c0,1.904-0.182,3.178-1.065,3.752
		c-0.336,0.266-0.714,0.42-1.345,0.42l-0.126-0.966c0.238-0.042,0.505-0.14,0.673-0.28c0.63-0.462,0.7-1.414,0.7-2.926v-2.73
		L601.21,62.883L601.21,62.883z"/>
	<path fill="#A7A9AB" d="M604.363,62.883v2.856c0,1.078-0.014,1.75-0.07,2.716l0.042,0.014c0.406-0.826,0.645-1.302,1.093-2.086
		l2.115-3.5h1.443v6.776h-1.177v-2.87c0-1.106,0.028-1.68,0.084-2.772h-0.042c-0.434,0.868-0.729,1.414-1.121,2.1
		c-0.645,1.05-1.388,2.352-2.116,3.542H603.2v-6.776H604.363z"/>
	<path fill="#A7A9AB" d="M612.183,62.883v5.81h3.125v-5.81h1.219v5.852l0.701,0.014l-0.07,3.066h-0.953l-0.056-2.156h-5.185v-6.776
		H612.183z"/>
	<path fill="#A7A9AB" d="M619.33,66.495c0.028,1.666,1.093,2.352,2.326,2.352c0.883,0,1.415-0.154,1.878-0.35l0.21,0.882
		c-0.434,0.196-1.177,0.42-2.256,0.42c-2.088,0-3.335-1.372-3.335-3.416s1.205-3.654,3.181-3.654c2.214,0,2.802,1.946,2.802,3.192
		c0,0.252-0.028,0.448-0.042,0.574C624.094,66.495,619.33,66.495,619.33,66.495z M622.945,65.613
		c0.014-0.784-0.322-2.002-1.71-2.002c-1.247,0-1.793,1.148-1.892,2.002H622.945z"/>
	<path fill="#A7A9AB" d="M626.855,62.883v2.73h3.223v-2.73h1.219v6.776h-1.219v-3.066h-3.223v3.066h-1.219v-6.776H626.855z"/>
	<path fill="#A7A9AB" d="M633.876,65.726h0.589c1.037,0,1.737-0.476,1.737-1.106c0-0.602-0.547-0.98-1.317-0.98
		c-0.547,0-1.163,0.182-1.639,0.476l-0.308-0.756c0.686-0.42,1.471-0.616,2.256-0.616c1.037,0,2.298,0.462,2.298,1.778
		c0,0.84-0.771,1.386-1.528,1.54v0.028c1.009,0.084,1.85,0.7,1.85,1.694c0,1.47-1.5,2.016-2.929,2.016
		c-0.799,0-1.598-0.21-2.2-0.546l0.322-0.826c0.491,0.266,1.149,0.462,1.794,0.462c1.023,0,1.667-0.49,1.667-1.162
		c0-0.91-0.953-1.162-1.976-1.162h-0.617L633.876,65.726L633.876,65.726z"/>
	<path fill="#A7A9AB" d="M640.49,62.883v2.856c0,1.078-0.014,1.75-0.07,2.716l0.042,0.014c0.406-0.826,0.645-1.302,1.093-2.086
		l2.115-3.5h1.443v6.776h-1.177v-2.87c0-1.106,0.028-1.68,0.084-2.772h-0.042c-0.434,0.868-0.729,1.414-1.121,2.1
		c-0.645,1.05-1.387,2.352-2.116,3.542h-1.415v-6.776H640.49z"/>
	<path fill="#A7A9AB" d="M647.119,65.095c0-0.868-0.028-1.568-0.056-2.212h1.107l0.056,1.162h0.028
		c0.505-0.826,1.303-1.316,2.41-1.316c1.639,0,2.873,1.386,2.873,3.444c0,2.436-1.485,3.64-3.083,3.64
		c-0.897,0-1.681-0.392-2.088-1.064h-0.028v3.682h-1.219V65.095z M648.338,66.901c0,0.182,0.028,0.35,0.056,0.504
		c0.224,0.854,0.967,1.442,1.85,1.442c1.303,0,2.06-1.064,2.06-2.618c0-1.358-0.715-2.52-2.018-2.52
		c-0.841,0-1.626,0.602-1.864,1.526c-0.042,0.154-0.084,0.336-0.084,0.504L648.338,66.901L648.338,66.901z"/>
	<path fill="#A7A9AB" d="M661.23,66.215c0,2.506-1.737,3.598-3.377,3.598c-1.836,0-3.251-1.344-3.251-3.486
		c0-2.268,1.485-3.598,3.363-3.598C659.913,62.729,661.23,64.143,661.23,66.215z M655.849,66.285c0,1.484,0.855,2.604,2.06,2.604
		c1.177,0,2.06-1.106,2.06-2.632c0-1.148-0.575-2.604-2.032-2.604C656.48,63.653,655.849,64.998,655.849,66.285z"/>
	<path fill="#A7A9AB" d="M662.758,62.967c0.477-0.084,1.359-0.154,2.158-0.154c1.135,0,3.013,0.182,3.013,1.694
		c0,0.84-0.645,1.358-1.415,1.526v0.028c0.995,0.14,1.723,0.7,1.723,1.68c0,1.778-2.242,2.002-3.573,2.002
		c-0.757,0-1.542-0.056-1.906-0.084V62.967L662.758,62.967z M663.921,68.847c0.351,0.042,0.603,0.056,0.995,0.056
		c0.827,0,2.06-0.196,2.06-1.176s-0.981-1.19-2.158-1.19h-0.897L663.921,68.847L663.921,68.847z M663.935,65.726h0.925
		c0.911,0,1.85-0.266,1.85-1.064c0-0.672-0.589-0.994-1.822-0.994c-0.406,0-0.659,0.028-0.953,0.056V65.726z"/>
	<path fill="#A7A9AB" d="M673.548,69.659l-0.098-0.854h-0.042c-0.378,0.532-1.107,1.008-2.074,1.008
		c-1.373,0-2.074-0.966-2.074-1.946c0-1.638,1.457-2.534,4.078-2.52v-0.14c0-0.56-0.154-1.568-1.542-1.568
		c-0.631,0-1.289,0.196-1.766,0.504l-0.28-0.812c0.561-0.364,1.373-0.602,2.228-0.602c2.074,0,2.579,1.414,2.579,2.772v2.534
		c0,0.588,0.028,1.162,0.112,1.624L673.548,69.659L673.548,69.659z M673.366,66.202c-1.345-0.028-2.873,0.21-2.873,1.526
		c0,0.798,0.533,1.176,1.163,1.176c0.883,0,1.443-0.56,1.64-1.134c0.042-0.126,0.07-0.266,0.07-0.392L673.366,66.202L673.366,66.202
		z"/>
	<path fill="#A7A9AB" d="M677.739,62.883v2.73h3.223v-2.73h1.219v6.776h-1.219v-3.066h-3.223v3.066h-1.219v-6.776H677.739z"/>
	<path fill="#A7A9AB" d="M685.334,62.883v2.856c0,1.078-0.014,1.75-0.07,2.716l0.042,0.014c0.406-0.826,0.645-1.302,1.093-2.086
		l2.116-3.5h1.443v6.776h-1.177v-2.87c0-1.106,0.028-1.68,0.084-2.772h-0.042c-0.434,0.868-0.729,1.414-1.121,2.1
		c-0.645,1.05-1.388,2.352-2.116,3.542h-1.415v-6.776H685.334z"/>
	<path fill="#A7A9AB" d="M696.965,69.659h-1.219v-2.842h-0.911c-0.518,0-0.869,0.14-1.135,0.378
		c-0.505,0.406-0.686,1.246-0.953,1.904c-0.084,0.21-0.182,0.392-0.28,0.56h-1.317c0.154-0.224,0.294-0.476,0.42-0.77
		c0.294-0.658,0.462-1.54,1.065-2.044c0.21-0.182,0.462-0.336,0.771-0.392v-0.042c-0.883-0.098-1.794-0.644-1.794-1.68
		c0-0.7,0.378-1.176,0.897-1.47c0.56-0.322,1.387-0.462,2.27-0.462c0.813,0,1.598,0.07,2.186,0.14L696.965,69.659L696.965,69.659z
		 M695.746,63.695c-0.308-0.042-0.589-0.07-1.023-0.07c-0.841,0-1.836,0.238-1.836,1.176c0,0.868,1.079,1.176,1.807,1.176
		c0.505,0,0.771,0,1.051,0V63.695z"/>
	<path fill="#A7A9AB" d="M555.848,86.46v-9.1h1.345l2.382,4.494c0.547,1.078,1.037,2.086,1.429,3.038l0.014-0.014
		c-0.098-1.274-0.126-2.338-0.126-3.78V77.36h1.093v9.1h-1.247l-2.396-4.522c-0.533-1.022-1.023-2.058-1.443-3.094l-0.042,0.014
		c0.056,1.176,0.084,2.226,0.084,3.836v3.766L555.848,86.46L555.848,86.46z M567.212,79.964c0,1.736-1.093,2.45-2.214,2.45
		c-1.247,0-2.214-0.868-2.214-2.394c0-1.568,1.023-2.45,2.228-2.45C566.372,77.57,567.212,78.508,567.212,79.964z M563.162,83.745
		v-0.728h3.685v0.728H563.162z M563.793,80.02c0,0.98,0.547,1.694,1.205,1.694c0.743,0,1.205-0.714,1.205-1.722
		c0-0.812-0.336-1.722-1.205-1.722C564.172,78.27,563.793,79.181,563.793,80.02z"/>
	<path fill="#A7A9AB" d="M570.954,78.508h-0.028l-1.583,0.854l-0.238-0.938l1.99-1.064h1.051v9.1h-1.191V78.508z"/>
	<path fill="#A7A9AB" d="M578.802,79.769c0.477-0.084,1.359-0.154,2.158-0.154c1.135,0,3.013,0.182,3.013,1.694
		c0,0.84-0.645,1.358-1.415,1.526v0.028c0.995,0.14,1.723,0.7,1.723,1.68c0,1.778-2.242,2.002-3.573,2.002
		c-0.757,0-1.542-0.056-1.906-0.084L578.802,79.769L578.802,79.769z M579.965,85.648c0.351,0.042,0.603,0.056,0.995,0.056
		c0.827,0,2.06-0.196,2.06-1.176c0-0.98-0.981-1.19-2.158-1.19h-0.897L579.965,85.648L579.965,85.648z M579.979,82.526h0.925
		c0.911,0,1.85-0.266,1.85-1.064c0-0.672-0.589-0.994-1.822-0.994c-0.406,0-0.659,0.028-0.953,0.056V82.526z"/>
	<path fill="#A7A9AB" d="M588.85,77.137c0.589-0.098,1.359-0.182,2.34-0.182c1.205,0,2.088,0.28,2.648,0.784
		c0.518,0.448,0.827,1.134,0.827,1.974c0,0.854-0.252,1.526-0.729,2.016c-0.644,0.686-1.695,1.036-2.887,1.036
		c-0.364,0-0.701-0.014-0.981-0.084v3.78h-1.219V77.137z M590.069,81.686c0.266,0.07,0.602,0.098,1.009,0.098
		c1.471,0,2.368-0.714,2.368-2.016c0-1.246-0.883-1.848-2.228-1.848c-0.532,0-0.939,0.042-1.149,0.098L590.069,81.686
		L590.069,81.686z"/>
	<path fill="#A7A9AB" d="M602.008,83.017c0,2.506-1.737,3.598-3.377,3.598c-1.836,0-3.251-1.344-3.251-3.486
		c0-2.268,1.485-3.598,3.363-3.598C600.691,79.53,602.008,80.944,602.008,83.017z M596.628,83.087c0,1.484,0.855,2.604,2.06,2.604
		c1.177,0,2.06-1.106,2.06-2.632c0-1.148-0.575-2.604-2.032-2.604S596.628,81.798,596.628,83.087z"/>
	<path fill="#A7A9AB" d="M608.399,86.208c-0.322,0.168-1.037,0.392-1.948,0.392c-2.046,0-3.377-1.386-3.377-3.458
		c0-2.086,1.429-3.598,3.643-3.598c0.729,0,1.373,0.182,1.71,0.35l-0.28,0.952c-0.294-0.168-0.757-0.322-1.429-0.322
		c-1.555,0-2.396,1.148-2.396,2.562c0,1.568,1.009,2.534,2.354,2.534c0.7,0,1.163-0.182,1.513-0.336L608.399,86.208z"/>
	<path fill="#A7A9AB" d="M614.593,86.208c-0.322,0.168-1.037,0.392-1.948,0.392c-2.046,0-3.377-1.386-3.377-3.458
		c0-2.086,1.429-3.598,3.643-3.598c0.729,0,1.373,0.182,1.71,0.35l-0.28,0.952c-0.294-0.168-0.757-0.322-1.429-0.322
		c-1.555,0-2.396,1.148-2.396,2.562c0,1.568,1.009,2.534,2.354,2.534c0.7,0,1.163-0.182,1.513-0.336L614.593,86.208z"/>
	<path fill="#A7A9AB" d="M617.172,79.685v2.856c0,1.078-0.014,1.75-0.07,2.716l0.042,0.014c0.406-0.826,0.645-1.302,1.093-2.086
		l2.115-3.5h1.443v6.776h-1.177v-2.87c0-1.106,0.028-1.68,0.084-2.772h-0.042c-0.434,0.868-0.729,1.414-1.121,2.1
		c-0.645,1.05-1.387,2.352-2.116,3.542h-1.415v-6.776H617.172z"/>
	<path fill="#A7A9AB" d="M624.935,79.685v2.856c0,1.078-0.014,1.75-0.07,2.716l0.042,0.014c0.406-0.826,0.645-1.302,1.093-2.086
		l2.116-3.5h1.443v6.776h-1.177v-2.87c0-1.106,0.028-1.68,0.084-2.772h-0.042c-0.434,0.868-0.729,1.414-1.121,2.1
		c-0.645,1.05-1.388,2.352-2.116,3.542h-1.415v-6.776H624.935z"/>
</g>
<line fill="none" stroke="#A7A9AC" stroke-width="1.4173" stroke-miterlimit="10" x1="544.547" y1="60.29" x2="544.547" y2="86.478"/>
</svg>
