<?xml version="1.0" encoding="utf-8"?>
<!-- Generator: Adobe Illustrator 17.0.0, SVG Export Plug-In . SVG Version: 6.00 Build 0)  -->
<!DOCTYPE svg PUBLIC "-//W3C//DTD SVG 1.1//EN" "http://www.w3.org/Graphics/SVG/1.1/DTD/svg11.dtd">
<svg version="1.1" id="logo" xmlns="http://www.w3.org/2000/svg" xmlns:xlink="http://www.w3.org/1999/xlink" x="0px" y="0px"
	 width="145px" height="42px" viewBox="182.13 52.495 145 42" enable-background="new 182.13 52.495 145 42" xml:space="preserve">
<path id="Рамка_1_" fill="#010101" d="M221.484,55.01v36.97h-36.847V55.01H221.484 M223.99,52.495h-2.506h-36.847h-2.506v2.515
	v36.97v2.515h2.506h36.847h2.506V91.98V55.01L223.99,52.495L223.99,52.495z"/>
<linearGradient id="Символ_2_" gradientUnits="userSpaceOnUse" x1="810.2946" y1="539.7704" x2="790.0297" y2="504.6706" gradientTransform="matrix(1 0 0 1 -598.22 -448.08)">
	<stop  offset="0" style="stop-color:#1D76BB"/>
	<stop  offset="1" style="stop-color:#28A8E0"/>
</linearGradient>
<path id="Символ_1_" fill="url(#Символ_2_)" d="M204.638,88.348h13.226v-3.632h-13.447h-12.542v-5.823h-3.619v9.455
	H204.638z M205.686,83.242h12.178V79.61h-12.15h-5.344c-1.882,0-3.414-1.537-3.414-3.426c0-1.889,1.532-3.426,3.414-3.426v-3.632
	h-0.123v0.001c-3.822,0.066-6.91,3.206-6.91,7.057c0,3.892,3.155,7.058,7.033,7.058C200.37,83.242,205.686,83.242,205.686,83.242z
	 M210.831,69.126c1.882,0,3.414-1.537,3.414-3.426c0-1.889-1.532-3.426-3.414-3.426h-1.868h-17.087v14.557h-3.619v-18.19h20.624
	h1.951c3.878,0,7.033,3.166,7.033,7.058s-3.155,7.058-7.033,7.058l-8.415,0.001l-0.001-3.633L210.831,69.126"/>
<g>
	<path d="M230.03,73.774V60.289h6.15c1.296,0,2.312,0.385,3.048,1.156c0.736,0.771,1.104,1.822,1.104,3.151
		c0,0.193-0.015,0.401-0.046,0.621c-0.03,0.221-0.087,0.473-0.172,0.757c-0.084,0.284-0.193,0.559-0.326,0.825
		c-0.133,0.266-0.312,0.529-0.538,0.789c-0.226,0.26-0.483,0.485-0.769,0.675c-0.286,0.191-0.639,0.345-1.059,0.463
		c-0.419,0.118-0.876,0.177-1.371,0.177h-3.221v4.87L230.03,73.774L230.03,73.774z M232.831,66.583h2.602
		c1.398,0,2.096-0.698,2.096-2.095c0-0.659-0.194-1.137-0.583-1.433c-0.388-0.296-1.016-0.444-1.884-0.444h-2.232V66.583z"/>
	<path d="M242.447,73.774V60.289h6.855c0.675,0,1.275,0.097,1.799,0.29c0.525,0.193,0.933,0.431,1.226,0.712
		c0.292,0.281,0.532,0.606,0.719,0.975c0.187,0.369,0.311,0.698,0.371,0.988c0.06,0.29,0.091,0.571,0.091,0.843
		c0,0.763-0.18,1.435-0.54,2.016c-0.36,0.581-0.866,0.981-1.518,1.199c0.254,0.109,0.455,0.209,0.603,0.299
		c0.148,0.091,0.301,0.219,0.458,0.386c0.157,0.166,0.275,0.363,0.354,0.589c0.079,0.227,0.144,0.517,0.195,0.871
		c0.052,0.354,0.077,0.779,0.077,1.275c0,1.05,0.031,1.731,0.093,2.042c0.062,0.311,0.233,0.521,0.512,0.629v0.371h-3.109
		c-0.198-0.718-0.298-1.626-0.298-2.725c0-0.35-0.006-0.628-0.018-0.833c-0.012-0.205-0.042-0.418-0.09-0.638
		c-0.048-0.22-0.117-0.386-0.208-0.498c-0.09-0.112-0.218-0.217-0.384-0.317c-0.166-0.099-0.369-0.167-0.61-0.203
		c-0.241-0.036-0.533-0.054-0.877-0.054h-2.901v5.269L242.447,73.774L242.447,73.774z M245.248,66.238h3.289
		c0.741,0,1.288-0.145,1.64-0.435c0.352-0.29,0.528-0.759,0.528-1.406c0-0.205-0.027-0.402-0.081-0.589
		c-0.054-0.187-0.149-0.376-0.285-0.567c-0.136-0.19-0.34-0.343-0.614-0.458c-0.274-0.115-0.607-0.172-0.999-0.172h-3.479
		L245.248,66.238L245.248,66.238z"/>
	<path d="M255.428,69.412c-0.178-0.719-0.267-1.512-0.267-2.376c0-0.864,0.089-1.656,0.267-2.376
		c0.178-0.719,0.41-1.318,0.696-1.796c0.286-0.477,0.627-0.901,1.022-1.27c0.395-0.369,0.787-0.654,1.176-0.857
		c0.389-0.202,0.801-0.367,1.235-0.494c0.434-0.127,0.811-0.21,1.131-0.249c0.319-0.039,0.627-0.059,0.922-0.059
		c0.295,0,0.602,0.02,0.921,0.059c0.319,0.039,0.695,0.123,1.129,0.249c0.434,0.127,0.845,0.292,1.233,0.494
		c0.388,0.203,0.78,0.488,1.174,0.857s0.734,0.792,1.02,1.27c0.286,0.478,0.518,1.076,0.695,1.796
		c0.178,0.719,0.267,1.512,0.267,2.376c0,0.865-0.089,1.657-0.267,2.376c-0.178,0.719-0.409,1.318-0.695,1.796
		c-0.286,0.478-0.626,0.899-1.02,1.265c-0.394,0.366-0.786,0.65-1.174,0.852c-0.388,0.203-0.799,0.367-1.233,0.494
		c-0.433,0.127-0.81,0.21-1.129,0.249c-0.319,0.039-0.626,0.059-0.921,0.059c-0.295,0-0.602-0.02-0.922-0.059
		c-0.319-0.039-0.696-0.122-1.131-0.249c-0.434-0.127-0.846-0.292-1.235-0.494c-0.389-0.202-0.781-0.487-1.176-0.852
		c-0.395-0.366-0.735-0.787-1.022-1.265C255.838,70.73,255.606,70.131,255.428,69.412z M258.202,65.1
		c-0.16,0.565-0.239,1.211-0.239,1.936c0,0.725,0.079,1.371,0.239,1.936c0.16,0.565,0.361,1.019,0.605,1.36
		c0.243,0.342,0.532,0.623,0.866,0.843s0.657,0.372,0.97,0.453c0.313,0.081,0.635,0.122,0.966,0.122
		c0.331,0,0.653-0.041,0.966-0.122c0.313-0.082,0.635-0.233,0.966-0.453c0.331-0.221,0.62-0.502,0.866-0.843
		c0.247-0.341,0.448-0.795,0.605-1.36c0.157-0.565,0.235-1.211,0.235-1.936c0-0.725-0.078-1.371-0.235-1.936
		c-0.157-0.565-0.358-1.019-0.605-1.36c-0.247-0.342-0.536-0.624-0.866-0.848c-0.331-0.224-0.653-0.376-0.966-0.458
		c-0.313-0.082-0.635-0.123-0.966-0.123c-0.331,0-0.653,0.041-0.966,0.123c-0.313,0.081-0.636,0.234-0.97,0.458
		c-0.334,0.224-0.623,0.506-0.866,0.848C258.563,64.081,258.361,64.534,258.202,65.1z"/>
	<path d="M270.162,73.774V60.289h9.57v2.322h-6.769v2.784h5.919v2.322h-5.919v6.058H270.162z"/>
	<path d="M286.7,73.774V60.289h2.801v11.164h6.696v2.322H286.7z"/>
	<path d="M298.005,73.774V60.289h2.801v13.485H298.005z"/>
	<path d="M303.382,73.774V60.289h2.964l5.332,9.377h0.036v-9.377h2.612v13.485h-2.819l-5.458-9.622h-0.054v9.622H303.382z"/>
	<path d="M316.91,73.774V60.289h9.922v2.322h-7.121v2.784h6.534v2.322h-6.534v3.736h7.419v2.322H316.91z"/>
</g>
<g>
	<path fill="#A7A9AC" d="M230.104,82.039c0-0.707,0.098-1.341,0.293-1.903s0.465-1.021,0.809-1.378
		c0.344-0.357,0.745-0.63,1.203-0.817c0.458-0.188,0.956-0.282,1.493-0.282c0.475,0,0.91,0.063,1.307,0.19
		c0.397,0.126,0.727,0.29,0.993,0.491c0.265,0.201,0.492,0.433,0.681,0.697c0.189,0.264,0.329,0.527,0.42,0.787
		c0.091,0.26,0.145,0.519,0.164,0.776h-1.718c-0.03-0.101-0.054-0.181-0.072-0.243s-0.053-0.151-0.103-0.268
		c-0.05-0.117-0.103-0.213-0.159-0.287c-0.056-0.075-0.131-0.159-0.225-0.254s-0.199-0.17-0.314-0.226
		c-0.115-0.056-0.255-0.103-0.42-0.142c-0.165-0.039-0.346-0.059-0.542-0.059c-0.182,0-0.362,0.026-0.54,0.078
		c-0.178,0.052-0.362,0.147-0.553,0.285c-0.191,0.137-0.358,0.313-0.501,0.527c-0.143,0.214-0.261,0.497-0.353,0.848
		c-0.093,0.351-0.139,0.753-0.139,1.203c0,0.383,0.042,0.742,0.125,1.077c0.083,0.335,0.207,0.638,0.37,0.91
		c0.163,0.271,0.381,0.486,0.653,0.645c0.272,0.158,0.585,0.237,0.937,0.237c0.478,0,0.878-0.14,1.198-0.421
		c0.321-0.281,0.533-0.674,0.637-1.18h1.718c-0.178,0.941-0.57,1.687-1.176,2.238c-0.606,0.551-1.41,0.826-2.411,0.826
		c-0.552,0-1.058-0.094-1.516-0.282c-0.458-0.188-0.856-0.461-1.195-0.82c-0.338-0.359-0.6-0.815-0.787-1.37
		C230.197,83.365,230.104,82.738,230.104,82.039z"/>
	<path fill="#A7A9AC" d="M238.661,83.49c-0.11-0.443-0.164-0.93-0.164-1.462s0.055-1.019,0.164-1.462
		c0.109-0.443,0.252-0.811,0.429-1.105c0.176-0.294,0.386-0.554,0.629-0.781c0.243-0.227,0.484-0.403,0.723-0.527
		c0.239-0.125,0.493-0.226,0.76-0.304c0.267-0.078,0.499-0.129,0.696-0.153c0.196-0.024,0.386-0.036,0.567-0.036
		s0.37,0.012,0.567,0.036c0.196,0.024,0.428,0.075,0.694,0.153c0.267,0.078,0.52,0.179,0.759,0.304
		c0.239,0.125,0.48,0.301,0.723,0.527c0.243,0.227,0.452,0.487,0.628,0.781s0.319,0.662,0.428,1.105
		c0.109,0.443,0.164,0.93,0.164,1.462s-0.055,1.019-0.164,1.462c-0.109,0.443-0.252,0.811-0.428,1.105
		c-0.176,0.294-0.385,0.553-0.628,0.779c-0.243,0.225-0.483,0.4-0.723,0.525c-0.239,0.125-0.492,0.226-0.759,0.304
		c-0.267,0.078-0.498,0.129-0.694,0.153c-0.196,0.024-0.385,0.036-0.567,0.036c-0.181,0-0.37-0.012-0.567-0.036
		c-0.197-0.024-0.429-0.075-0.696-0.153c-0.267-0.078-0.52-0.179-0.76-0.304c-0.239-0.125-0.481-0.299-0.723-0.525
		s-0.453-0.485-0.629-0.779C238.913,84.301,238.771,83.933,238.661,83.49z M240.368,80.836c-0.098,0.348-0.147,0.745-0.147,1.192
		s0.049,0.843,0.147,1.192c0.098,0.348,0.222,0.627,0.372,0.837c0.15,0.21,0.328,0.383,0.533,0.519
		c0.206,0.136,0.404,0.229,0.597,0.279c0.193,0.05,0.391,0.075,0.594,0.075s0.402-0.025,0.594-0.075
		c0.192-0.05,0.391-0.143,0.594-0.279s0.381-0.309,0.533-0.519s0.276-0.489,0.372-0.837c0.096-0.348,0.144-0.745,0.144-1.192
		s-0.048-0.843-0.144-1.192c-0.096-0.348-0.22-0.627-0.372-0.837c-0.152-0.21-0.329-0.384-0.533-0.522
		c-0.204-0.137-0.402-0.232-0.594-0.282s-0.391-0.075-0.594-0.075s-0.402,0.025-0.594,0.075c-0.192,0.05-0.392,0.144-0.597,0.282
		c-0.206,0.137-0.383,0.312-0.533,0.522S240.466,80.488,240.368,80.836z"/>
	<path fill="#A7A9AC" d="M247.808,86.174v-8.299h1.824l3.281,5.77h0.022v-5.77h1.607v8.299h-1.735l-3.359-5.921h-0.033v5.921
		C249.415,86.174,247.808,86.174,247.808,86.174z"/>
	<path fill="#A7A9AC" d="M255.94,83.613h1.574c0,0.108,0.012,0.215,0.036,0.321c0.024,0.106,0.074,0.224,0.15,0.354
		s0.175,0.243,0.298,0.338c0.122,0.095,0.293,0.175,0.512,0.24c0.219,0.065,0.471,0.098,0.756,0.098c0.222,0,0.429-0.016,0.62-0.047
		c0.191-0.031,0.374-0.085,0.551-0.161c0.176-0.076,0.314-0.187,0.414-0.334c0.1-0.147,0.15-0.324,0.15-0.532
		c0-0.082-0.009-0.156-0.025-0.223c-0.017-0.067-0.047-0.128-0.092-0.184c-0.044-0.056-0.086-0.105-0.125-0.148
		c-0.039-0.043-0.1-0.083-0.184-0.123c-0.083-0.039-0.155-0.071-0.214-0.097c-0.059-0.026-0.148-0.054-0.267-0.085
		c-0.119-0.03-0.213-0.055-0.283-0.073c-0.07-0.018-0.177-0.046-0.321-0.083l-1.659-0.427c-1.231-0.298-1.846-1.043-1.846-2.238
		c0-0.141,0.011-0.285,0.033-0.43c0.022-0.145,0.066-0.303,0.131-0.474c0.065-0.171,0.146-0.333,0.245-0.485
		c0.098-0.153,0.231-0.301,0.397-0.444c0.167-0.143,0.358-0.267,0.573-0.371c0.215-0.104,0.476-0.188,0.784-0.251
		c0.308-0.063,0.647-0.095,1.018-0.095c0.483,0,0.917,0.061,1.303,0.184c0.386,0.123,0.695,0.279,0.927,0.469
		s0.425,0.408,0.579,0.656c0.154,0.247,0.26,0.485,0.317,0.711c0.057,0.227,0.086,0.45,0.086,0.67h-1.656
		c-0.007-0.075-0.017-0.139-0.028-0.193c-0.011-0.054-0.032-0.127-0.064-0.22c-0.032-0.093-0.071-0.174-0.117-0.243
		c-0.046-0.069-0.112-0.144-0.197-0.226c-0.085-0.082-0.184-0.148-0.295-0.198c-0.111-0.05-0.251-0.093-0.42-0.128
		c-0.169-0.035-0.357-0.053-0.564-0.053c-0.241,0-0.465,0.03-0.673,0.089c-0.208,0.059-0.388,0.166-0.542,0.32
		c-0.154,0.154-0.231,0.349-0.231,0.582c0,0.123,0.021,0.233,0.064,0.332c0.043,0.099,0.091,0.177,0.145,0.234
		c0.054,0.057,0.126,0.109,0.217,0.153s0.167,0.075,0.228,0.089c0.061,0.015,0.136,0.034,0.226,0.056l2.012,0.498
		c0.253,0.063,0.474,0.129,0.663,0.198s0.384,0.163,0.583,0.282c0.199,0.119,0.362,0.254,0.488,0.405
		c0.126,0.151,0.23,0.34,0.312,0.569c0.082,0.229,0.123,0.487,0.123,0.773c0,0.342-0.048,0.655-0.145,0.937
		c-0.096,0.283-0.22,0.516-0.37,0.7s-0.331,0.346-0.54,0.485c-0.21,0.139-0.414,0.245-0.613,0.318s-0.409,0.132-0.63,0.179
		c-0.221,0.047-0.404,0.075-0.549,0.087c-0.145,0.011-0.282,0.017-0.412,0.017c-0.406,0-0.778-0.033-1.115-0.101
		c-0.337-0.067-0.623-0.156-0.857-0.268c-0.234-0.112-0.44-0.246-0.62-0.405c-0.179-0.158-0.323-0.318-0.43-0.48
		c-0.107-0.162-0.194-0.338-0.261-0.527s-0.112-0.363-0.136-0.522S255.94,83.773,255.94,83.613z"/>
	<path fill="#A7A9AC" d="M263.956,83.362v-5.486h1.724v5.397c0,0.551,0.137,0.965,0.411,1.242c0.274,0.277,0.626,0.416,1.057,0.416
		c0.578,0,1-0.134,1.265-0.402c0.265-0.268,0.397-0.661,0.397-1.178v-5.475h1.724v5.374c0,1.064-0.29,1.854-0.869,2.369
		s-1.407,0.773-2.484,0.773c-0.308,0-0.6-0.025-0.879-0.075c-0.278-0.05-0.564-0.144-0.859-0.282
		c-0.295-0.137-0.548-0.315-0.759-0.533c-0.211-0.217-0.385-0.51-0.523-0.876C264.024,84.259,263.956,83.838,263.956,83.362z"/>
	<path fill="#A7A9AC" d="M272.199,86.174v-8.299h1.724v6.87h4.121v1.429C278.044,86.174,272.199,86.174,272.199,86.174z"/>
	<path fill="#A7A9AC" d="M277.584,79.304v-1.429h6.701v1.429h-2.491v6.87h-1.724v-6.87H277.584z"/>
	<path fill="#A7A9AC" d="M285.316,86.174v-8.299h1.724v8.299C287.04,86.174,285.316,86.174,285.316,86.174z"/>
	<path fill="#A7A9AC" d="M288.704,86.174v-8.299h1.824l3.281,5.77h0.022v-5.77h1.607v8.299h-1.735l-3.359-5.921h-0.033v5.921
		C290.311,86.174,288.704,86.174,288.704,86.174z"/>
	<path fill="#A7A9AC" d="M296.825,82.05c0-0.461,0.049-0.904,0.147-1.328c0.099-0.424,0.254-0.823,0.468-1.197
		c0.213-0.374,0.475-0.698,0.785-0.974c0.31-0.275,0.688-0.493,1.135-0.653c0.447-0.16,0.94-0.24,1.477-0.24
		c0.407,0,0.787,0.042,1.139,0.125c0.352,0.084,0.656,0.199,0.911,0.346c0.256,0.147,0.483,0.313,0.683,0.499
		c0.2,0.186,0.362,0.385,0.486,0.597s0.221,0.421,0.292,0.628c0.07,0.206,0.113,0.408,0.128,0.605h-1.718
		c0-0.093-0.038-0.21-0.114-0.351s-0.183-0.287-0.322-0.438c-0.139-0.151-0.329-0.28-0.569-0.388
		c-0.241-0.108-0.504-0.162-0.789-0.162c-0.319,0-0.618,0.055-0.897,0.165c-0.279,0.11-0.535,0.277-0.766,0.502
		c-0.231,0.225-0.415,0.531-0.55,0.918s-0.203,0.835-0.203,1.345c0,0.439,0.048,0.829,0.144,1.172
		c0.097,0.342,0.221,0.619,0.375,0.829c0.153,0.21,0.339,0.383,0.555,0.519c0.217,0.136,0.436,0.23,0.658,0.282
		c0.222,0.052,0.457,0.078,0.706,0.078c0.104,0,0.213-0.009,0.327-0.028c0.115-0.019,0.262-0.065,0.442-0.139
		c0.179-0.075,0.343-0.173,0.492-0.296c0.148-0.123,0.291-0.302,0.431-0.539c0.139-0.236,0.242-0.513,0.308-0.829h-1.925v-1.395
		h3.453v4.47h-1.151l-0.172-1.038c-0.104,0.13-0.198,0.241-0.283,0.332c-0.085,0.091-0.208,0.2-0.367,0.327
		c-0.159,0.126-0.322,0.229-0.489,0.307c-0.167,0.078-0.376,0.146-0.628,0.204c-0.252,0.058-0.52,0.087-0.806,0.087
		c-0.508,0-0.987-0.091-1.436-0.273c-0.449-0.182-0.85-0.448-1.205-0.798c-0.354-0.35-0.635-0.805-0.843-1.367
		C296.929,83.391,296.825,82.757,296.825,82.05z"/>
</g>
</svg>
