<svg version="1.1" id="Capa_1" xmlns="http://www.w3.org/2000/svg" xmlns:xlink="http://www.w3.org/1999/xlink" x="0px" y="0px"
	 viewBox="0 0 497.129 497.129" style="enable-background:new 0 0 497.129 497.129;" xml:space="preserve">
<g>
	<g>
		<g>
			<path d="M493.08,191.442l-100.704-79.693V49.129c0-4.518-3.012-7.529-7.529-7.529h-79.469L254.588,1.694
				c-2.259-2.259-6.023-2.259-9.035,0L194.764,41.6h-82.481c-4.518,0-7.529,3.012-7.529,7.529v61.866L3.106,191.435
				c-2.259,1.506-3.012,3.765-3.012,6.023c0,0.126,0.011,0.252,0.016,0.378c-0.005,0.125-0.016,0.247-0.016,0.375V489.6
				c0,4.518,3.012,7.529,7.529,7.529h481.882c4.518,0,7.529-3.765,7.529-7.529V198.212
				C497.035,195.032,495.539,192.604,493.08,191.442z M481.976,475.616L319.242,360.911l162.734-145.25V475.616z M15.153,214.96
				l90.419,81.078c0.764,1.533,2.033,2.675,3.674,3.294l68.327,61.269L15.153,475.085V214.96z M228.988,342.776
				c12.047-8.282,27.859-8.282,39.153,0l33.368,23.52c0.158,0.197,0.329,0.389,0.515,0.574c0.961,0.961,1.924,1.612,3.081,1.96
				l160.656,113.24H31.369L228.988,342.776z M478.212,198.965l-85.835,76.994V130.957L478.212,198.965z M249.318,17.506
				L279.676,41.6h-60.717L249.318,17.506z M196.329,56.659c0.501,0.048,1.009,0.046,1.512,0h179.477v232.807l-70.156,62.929
				l-30.738-21.666c-17.318-12.047-39.906-12.047-56.471,0l-29.847,21.038l-70.294-63.054V115.671c0.048-0.501,0.046-1.009,0-1.512
				v-57.5H196.329z M104.753,130.204v145.002l-85.835-76.994L104.753,130.204z"/>
			<path d="M155.953,284.047h185.224c4.518,0,8.282-3.012,8.282-7.529s-3.012-7.529-7.529-7.529H155.953
				c-4.518,0-7.529,3.012-7.529,7.529S151.435,284.047,155.953,284.047z"/>
			<path d="M155.953,233.6h185.224c4.518,0,8.282-3.012,8.282-7.529c0-4.518-3.012-7.529-7.529-7.529H155.953
				c-4.518,0-7.529,3.012-7.529,7.529C148.424,230.588,151.435,233.6,155.953,233.6z"/>
			<path d="M155.953,183.153h185.224c4.518,0,8.282-3.012,8.282-7.529c0-4.518-3.012-7.529-7.529-7.529H155.953
				c-4.518,0-7.529,3.012-7.529,7.529C148.424,180.141,151.435,183.153,155.953,183.153z"/>
			<path d="M155.953,126.682h105.412c3.765,0,7.529-3.012,7.529-7.529c0-4.518-3.012-7.529-7.529-7.529H155.953
				c-4.518,0-7.529,3.012-7.529,7.529C148.424,123.671,151.435,126.682,155.953,126.682z"/>
		</g>
	</g>
</g>
</svg>
