<svg version="1.1" id="Capa_1" xmlns="http://www.w3.org/2000/svg" xmlns:xlink="http://www.w3.org/1999/xlink" x="0px" y="0px"
	 viewBox="0 0 480.003 480.003" style="enable-background:new 0 0 480.003 480.003;" xml:space="preserve">
<g>
	<g>
		<path d="M344.001,0h-304c-4.418,0-8,3.582-8,8v24h-24c-4.418,0-8,3.582-8,8v432c0,4.418,3.582,8,8,8h304c4.418,0,8-3.582,8-8v-24
			h24c4.418,0,8-3.582,8-8V8C352.001,3.582,348.42,0,344.001,0z M304.001,464h-288V48h288V464z M336.001,432h-16V40
			c0-4.418-3.582-8-8-8h-264V16h288V432z"/>
	</g>
</g>
<g>
	<g>
		<path d="M448.001,32.8V8c0-4.418-3.582-8-8-8h-64c-4.418,0-8,3.582-8,8v416c0,1.58,0.467,3.125,1.344,4.44l32,48
			c2.451,3.676,7.418,4.669,11.094,2.218c0.878-0.586,1.632-1.339,2.218-2.218l32-48c0.877-1.315,1.344-2.86,1.344-4.44V49.472
			c9.555,3.378,15.958,12.394,16,22.528v80h16V72C479.98,52.998,466.614,36.625,448.001,32.8z M432.001,421.6l-24,36l-24-36V224h48
			V421.6z M432.001,208h-48V16h48V208z"/>
	</g>
</g>
<g>
	<g>
		<rect x="80.001" y="72" width="160" height="16"/>
	</g>
</g>
<g>
	<g>
		<rect x="80.001" y="136" width="48" height="16"/>
	</g>
</g>
<g>
	<g>
		<rect x="144.001" y="136" width="88" height="16"/>
	</g>
</g>
<g>
	<g>
		<rect x="48.001" y="168" width="64" height="16"/>
	</g>
</g>
<g>
	<g>
		<rect x="128.001" y="168" width="80" height="16"/>
	</g>
</g>
<g>
	<g>
		<rect x="48.001" y="200" width="224" height="16"/>
	</g>
</g>
<g>
	<g>
		<rect x="48.001" y="232" width="48" height="16"/>
	</g>
</g>
<g>
	<g>
		<rect x="112.001" y="232" width="160" height="16"/>
	</g>
</g>
<g>
	<g>
		<rect x="48.001" y="264" width="224" height="16"/>
	</g>
</g>
<g>
	<g>
		<rect x="248.001" y="136" width="24" height="16"/>
	</g>
</g>
<g>
	<g>
		<rect x="224.001" y="168" width="48" height="16"/>
	</g>
</g>
<g>
	<g>
		<rect x="176.001" y="432" width="96" height="16"/>
	</g>
</g>
<g>
	<g>
		<rect x="80.001" y="296" width="128" height="16"/>
	</g>
</g>
<g>
	<g>
		<rect x="48.001" y="328" width="224" height="16"/>
	</g>
</g>
<g>
	<g>
		<rect x="48.001" y="360" width="48" height="16"/>
	</g>
</g>
<g>
	<g>
		<rect x="112.001" y="360" width="160" height="16"/>
	</g>
</g>
<g>
	<g>
		<rect x="224.001" y="296" width="48" height="16"/>
	</g>
</g>
</svg>
