<svg version="1.1" id="Capa_1" xmlns="http://www.w3.org/2000/svg" xmlns:xlink="http://www.w3.org/1999/xlink" x="0px" y="0px"
	 width="226.77px" height="226.77px" viewBox="0 0 226.77 226.77" enable-background="new 0 0 226.77 226.77" xml:space="preserve">
<g>
	<g>
		<path fill="#5FA100" d="M226.662,178.922c0.481,3.681-0.641,6.882-3.361,9.603l-31.929,31.687c-1.44,1.6-3.321,2.962-5.641,4.081
			c-2.321,1.121-4.601,1.841-6.841,2.161c-0.16,0-0.641,0.041-1.442,0.121c-0.799,0.08-1.839,0.12-3.12,0.12
			c-3.042,0-7.963-0.52-14.765-1.561s-15.124-3.602-24.966-7.682c-9.844-4.081-21.007-10.204-33.49-18.365
			c-12.483-8.161-25.767-19.365-39.851-33.609c-11.203-11.043-20.486-21.606-27.848-31.688
			c-7.362-10.083-13.284-19.406-17.765-27.968C11.163,97.26,7.802,89.498,5.562,82.536C3.321,75.574,1.8,69.573,1,64.531
			s-1.12-9.002-0.96-11.883c0.16-2.881,0.24-4.481,0.24-4.801c0.32-2.241,1.04-4.521,2.161-6.842s2.481-4.201,4.081-5.642
			L38.45,3.435c2.241-2.241,4.801-3.361,7.682-3.361c2.081,0,3.921,0.6,5.522,1.8s2.961,2.681,4.081,4.441l25.687,48.733
			c1.44,2.561,1.84,5.361,1.2,8.402s-2.001,5.602-4.081,7.682L66.778,82.896c-0.32,0.32-0.6,0.84-0.84,1.56
			c-0.24,0.72-0.36,1.32-0.36,1.8c0.64,3.361,2.081,7.202,4.321,11.523c1.921,3.841,4.881,8.522,8.882,14.044
			c4.001,5.521,9.683,11.883,17.045,19.085c7.202,7.363,13.604,13.084,19.205,17.165c5.6,4.08,10.283,7.082,14.044,9.002
			c3.761,1.921,6.642,3.081,8.642,3.48l3,0.601c0.32,0,0.841-0.12,1.561-0.36c0.72-0.24,1.24-0.52,1.561-0.841l13.683-13.924
			c2.882-2.56,6.242-3.841,10.083-3.841c2.722,0,4.881,0.48,6.481,1.44h0.24L220.659,171
			C224.021,173.082,226.021,175.722,226.662,178.922z"/>
	</g>
</g>
</svg>
