<svg version="1.1" fill="#fec500" id="Слой_1" xmlns="http://www.w3.org/2000/svg" width="70" height="70" xml:space="preserve"><path class="st0" d="M57.8 37c-.6 0-1 .5-1 1 0 .7-.6 1.3-1.3 1.3-.7 0-1.3-.6-1.3-1.3 0-.6-.5-1-1-1-.6 0-1 .5-1 1 0 1.8 1.5 3.3 3.3 3.3 1.8 0 3.3-1.5 3.3-3.3 0-.5-.5-1-1-1zm0 0"/><path class="st0" d="M67.3 37.2l-2.9-.9c-.4-.1-.7-.4-.8-.8-.6-1.9-1.5-3.7-2.7-5.4-.5-.7-1.1-1.5-1.8-2.1.4-1.9.7-4 .6-5.8 0-2.6-.6-4.1-1.6-4.7-.6-.3-2.2-1.2-11.3 3-.2.1-.4.2-.6.4-.6-.2-1.2-.3-1.9-.5h-.2c.7-1.6 1.2-3.4 1.2-5.2 0-.6-.4-1-1-1.1-.6 0-1 .4-1.1 1-.1 3-1.4 5.8-3.5 7.9-1.3 1.3-2.7 2.2-4.3 2.7-2.7-.4-5.5-.4-8.2 0-1.6-.6-3-1.5-4.3-2.7-2.2-2.2-3.5-5.2-3.5-8.4s1.2-6.1 3.5-8.4c2.2-2.2 5.2-3.5 8.4-3.5s6.1 1.2 8.4 3.5c.9.9 1.6 1.9 2.2 3.1.3.5.9.7 1.4.5.7-.3.9-.9.7-1.4-.7-1.3-1.5-2.5-2.6-3.6C38.8 2.2 35.3.7 31.6.7s-7.2 1.4-9.8 4.1c-2.6 2.6-4.1 6.1-4.1 9.8s1.4 7.2 4.1 9.8c.8.8 1.6 1.4 2.5 2-.6.2-1.3.3-1.9.6-.5.2-.8.8-.6 1.3.2.5.8.8 1.3.6 5.6-1.9 11.7-1.9 17.2 0 .1 0 .2.1.3.1.4 0 .8-.3 1-.7.2-.5-.1-1.1-.6-1.3-.6-.2-1.2-.4-1.9-.6.9-.5 1.7-1.2 2.5-2 .7-.7 1.3-1.4 1.8-2.2.3.1.6.1.8.2.4.1.7.2 1.1.3v.1c-.5 2.4-.5 4.4.1 6.2.5 1.6 1.4 2.9 2.7 3.8 1.5 1.1 3.4 1.6 5 1.6 1.3 0 2.4-.3 3.2-.8 1-.5 1.8-1.7 2.4-3.4.3.3.6.7.8 1.1 1.1 1.5 1.9 3.1 2.4 4.8.3 1 1.1 1.8 2.1 2.1l2.9.9c.8.2 1.3.9 1.3 1.7v4.8c0 .8-.5 1.5-1.3 1.7l-4.6 1.5c-.7.2-1.4.7-1.8 1.4-1.8 3.1-4.7 5.7-8.5 7.7-.4.2-.7.6-.8 1.1l-1.5 7.8c0 .2-.2.4-.5.4h-4.8c-.2 0-.4-.2-.4-.4l-1-4.2c-.2-.9-1-1.4-1.8-1.3-2.1.3-4.2.5-6.3.5-1.6 0-3.2-.1-4.7-.3-.8-.1-1.6.5-1.8 1.3l-.8 4.1c0 .2-.2.4-.4.4h-4.8c-.2 0-.4-.2-.5-.4l-1.4-7.4c-.1-.5-.4-.9-.8-1.1-6.5-3.5-9.9-9.3-9.9-16.8 0-3.8.8-7.1 2.5-10 1.5-2.6 3.8-4.8 6.6-6.5.5-.3.7-.9.4-1.4-.3-.5-.9-.7-1.4-.4-5.6 3.2-8.9 8.2-9.8 14.5h-.3c0-.7-.1-1.4-.4-2-.6-1.5-1.8-2.5-3.1-2.7-1-.1-2 .3-2.7 1.2-1 1.3-.8 2.3-.5 2.9.5 1.1 1.8 1.8 4 2.3-.1.1-.1.2-.2.3-1.3 1.6-2.8 2-3.8 2-.6 0-1 .5-1 1.1 0 .6.5 1 1 1.1h.2c1.3 0 3.3-.5 5.2-2.9.3-.4.6-.8.7-1.2.2 0 .4 0 .6.1 0 .6-.1 1.1-.1 1.7 0 4.2 1 8 3 11.2 1.8 3 4.5 5.4 7.8 7.2l1.4 7.2c.2 1.2 1.3 2 2.5 2h4.8c1.2 0 2.2-.9 2.5-2l.7-3.7c1.5.2 3 .2 4.5.2 2.1 0 4.2-.1 6.2-.4l.7 3.9c.2 1.2 1.3 2 2.5 2h4.8c1.2 0 2.2-.9 2.5-2l1.4-7.6c4.1-2.2 7.1-5 9.1-8.4.1-.2.4-.4.6-.5l4.6-1.5c1.6-.5 2.7-2 2.7-3.7v-4.8c0-1.6-1.1-3.1-2.7-3.6zm-9.7-12.1c-.4 3.4-1.4 6.2-2.5 6.8-1.2.7-4 .8-6.1-.7-2.1-1.5-2.8-4.3-2-7.9.1-.4.3-.7.7-.9 5.1-2.3 8-3.1 9.1-3.1h.4c.4.4.8 2.4.4 5.8zM2.9 36.4c-.1-.2.1-.6.3-.8.2-.3.5-.4.7-.4H4c.5.1 1.1.6 1.5 1.4.1.2.2.5.2 1-1.5-.3-2.6-.7-2.8-1.2zm0 0"/><path class="st0" d="M32.5 13.5V9.8c1.3.1 1.7.7 2.2.7.5 0 .8-.7.8-1 0-.9-1.7-1.3-2.9-1.3v-.5c0-.2-.3-.4-.5-.4-.3 0-.5.2-.5.4v.5c-1.7.2-3.4 1.1-3.4 3.3 0 2.3 1.8 2.9 3.4 3.5v4.2c-1.8-.1-2.3-1.4-2.9-1.4-.4 0-.8.6-.8 1 0 .9 1.5 2.1 3.7 2.1v.6c0 .2.2.4.5.4s.5-.2.5-.4V21c1.9-.3 3.3-1.5 3.3-3.7-.1-2.5-1.8-3.3-3.4-3.8zm-.9-.4c-1-.4-1.7-.7-1.7-1.8 0-.9.7-1.4 1.7-1.5v3.3zm.8 6.1v-3.8c.9.4 1.6.9 1.6 2s-.6 1.7-1.6 1.8zm0 0"/></svg>