<svg width="70" height="70" fill="#fec500" xmlns="http://www.w3.org/2000/svg"><path fill-opacity="0" d="M0 0h70v70H0z"/><path d="M70 32.609h-3.393v-15.45c0-3.703-3.043-6.717-6.785-6.717h-4.595l-4.702-8.369A4.077 4.077 0 0 0 46.965 0c-.689 0-1.373.176-1.977.508l-18.045 9.934H6.785C3.044 10.442 0 13.455 0 17.16v46.124C0 66.987 3.044 70 6.785 70h53.037c3.742 0 6.785-3.013 6.785-6.717V49.737H70V32.61zm-10.178-19.48a4.048 4.048 0 0 1 4.026 3.583h-5.1l-2.01-3.583h3.084zM46.31 2.856c.636-.353 1.493-.106 1.844.521l7.49 13.334H21.14L46.309 2.856zm17.584 60.427c0 2.222-1.826 4.03-4.07 4.03H6.784c-2.244 0-4.071-1.808-4.071-4.03V17.16c0-2.223 1.827-4.03 4.071-4.03h15.278l-6.509 3.582h-7.92a1.35 1.35 0 0 0-1.358 1.344 1.35 1.35 0 0 0 1.357 1.343h56.26V32.61H53.97c-4.608 0-8.359 3.713-8.359 8.276v.577c0 4.563 3.751 8.276 8.36 8.276h9.923v13.544zm3.393-16.233H53.969c-3.113 0-5.645-2.506-5.645-5.588v-.578c0-3.082 2.532-5.589 5.645-5.589h13.317V47.05zm-9.16-5.767c0 1.64-1.34 2.966-2.996 2.966s-2.997-1.327-2.997-2.966c0-1.639 1.341-2.966 2.997-2.966 1.655 0 2.996 1.328 2.996 2.966z" /></svg>